<svg width="16px" height="16px" viewBox="0 0 9 9" fill="none" xmlns="http://www.w3.org/2000/svg">
<g clip-path="url(#clip0_1_154)">
<path d="M8.13311 4.04007C8.13311 4.08094 8.11852 4.11597 8.08932 4.14516L6.40788 5.69524C6.36117 5.73611 6.31009 5.74487 6.25462 5.72151C6.19916 5.69524 6.17143 5.65291 6.17143 5.59453V4.61369H0.706729C0.665861 4.61369 0.63229 4.60055 0.606018 4.57428C0.579745 4.54801 0.566609 4.51444 0.566609 4.47357V3.63284C0.566609 3.59198 0.579745 3.55841 0.606018 3.53213C0.63229 3.50586 0.665861 3.49272 0.706729 3.49272H6.17143V2.51188C6.17143 2.45058 6.19916 2.40825 6.25462 2.3849C6.31009 2.36154 6.36117 2.36884 6.40788 2.40679L8.08932 3.93936C8.11852 3.96855 8.13311 4.00212 8.13311 4.04007Z" fill="#F24343"/>
</g>
<defs>
<clipPath id="clip0_1_154">
<rect width="8.02" height="8" fill="white" transform="matrix(1 0 0 -1 0.47998 8.12988)"/>
</clipPath>
</defs>
</svg>
